<svg width="58" height="57" viewBox="0 0 58 57" fill="none" xmlns="http://www.w3.org/2000/svg">
<rect width="58" height="57" rx="12" fill="#0A0B0A"/>
<path fill-rule="evenodd" clip-rule="evenodd" d="M25 24C25 22.9391 25.4214 21.9217 26.1716 21.1716C26.9217 20.4214 27.9391 20 29 20C30.0609 20 31.0783 20.4214 31.8284 21.1716C32.5786 21.9217 33 22.9391 33 24C33 25.0609 32.5786 26.0783 31.8284 26.8284C31.0783 27.5786 30.0609 28 29 28C27.9391 28 26.9217 27.5786 26.1716 26.8284C25.4214 26.0783 25 25.0609 25 24ZM25 30C23.6739 30 22.4021 30.5268 21.4645 31.4645C20.5268 32.4021 20 33.6739 20 35C20 35.7956 20.3161 36.5587 20.8787 37.1213C21.4413 37.6839 22.2044 38 23 38H35C35.7956 38 36.5587 37.6839 37.1213 37.1213C37.6839 36.5587 38 35.7956 38 35C38 33.6739 37.4732 32.4021 36.5355 31.4645C35.5979 30.5268 34.3261 30 33 30H25Z" fill="#EFE7D2"/>
</svg>
