<svg width="58" height="57" viewBox="0 0 58 57" fill="none" xmlns="http://www.w3.org/2000/svg">
<rect width="58" height="57" rx="12" fill="#0A0B0A"/>
<path d="M21.5 21.5H39.5L37.25 31.25H23.75M37.25 34.25H24.5L20.75 18.5H18.5" stroke="#EFE7D2" stroke-linecap="round" stroke-linejoin="round"/>
<path d="M35.75 38.75C36.5784 38.75 37.25 38.0784 37.25 37.25C37.25 36.4216 36.5784 35.75 35.75 35.75C34.9216 35.75 34.25 36.4216 34.25 37.25C34.25 38.0784 34.9216 38.75 35.75 38.75Z" stroke="#EFE7D2" stroke-linecap="round" stroke-linejoin="round"/>
<path d="M26 38.75C26.8284 38.75 27.5 38.0784 27.5 37.25C27.5 36.4216 26.8284 35.75 26 35.75C25.1716 35.75 24.5 36.4216 24.5 37.25C24.5 38.0784 25.1716 38.75 26 38.75Z" stroke="#EFE7D2" stroke-linecap="round" stroke-linejoin="round"/>
</svg>
