<svg width="38" height="37" viewBox="0 0 38 37" fill="none" xmlns="http://www.w3.org/2000/svg">
<rect width="38" height="37" rx="12" fill="#0A0B0A"/>
<g clip-path="url(#clip0_5380_2560)">
<path d="M18.708 11.1667H13.1663C12.7464 11.1667 12.3437 11.3335 12.0468 11.6304C11.7498 11.9274 11.583 12.3301 11.583 12.75V23.8333C11.583 24.2533 11.7498 24.656 12.0468 24.9529C12.3437 25.2499 12.7464 25.4167 13.1663 25.4167H24.2497C24.6696 25.4167 25.0723 25.2499 25.3693 24.9529C25.6662 24.656 25.833 24.2533 25.833 23.8333V18.2917M24.6455 9.97918C24.9605 9.66424 25.3876 9.4873 25.833 9.4873C26.2784 9.4873 26.7056 9.66424 27.0205 9.97918C27.3355 10.2941 27.5124 10.7213 27.5124 11.1667C27.5124 11.6121 27.3355 12.0392 27.0205 12.3542L19.4997 19.875L16.333 20.6667L17.1247 17.5L24.6455 9.97918Z" stroke="#F3F3F3" stroke-width="2" stroke-linecap="round" stroke-linejoin="round"/>
</g>
<defs>
<clipPath id="clip0_5380_2560">
<rect width="19" height="19" fill="white" transform="translate(10 8)"/>
</clipPath>
</defs>
</svg>
