<svg width="149" height="79" viewBox="0 0 149 79" fill="none" xmlns="http://www.w3.org/2000/svg">
<rect width="149" height="57" rx="12" fill="#0A0B0A"/>
<path d="M24.258 32.82H24.348V33H21.81V32.82H21.9C21.984 32.82 22.062 32.784 22.134 32.712C22.206 32.64 22.266 32.556 22.314 32.46C22.374 32.364 22.416 32.262 22.44 32.154C22.464 32.034 22.476 31.926 22.476 31.83V22.236C22.476 22.152 22.464 22.056 22.44 21.948C22.416 21.84 22.374 21.738 22.314 21.642C22.266 21.546 22.206 21.468 22.134 21.408C22.062 21.336 21.984 21.3 21.9 21.3H21.81V21.12H24.942C26.142 21.12 27.066 21.354 27.714 21.822C28.374 22.29 28.704 22.98 28.704 23.892C28.704 24.348 28.626 24.75 28.47 25.098C28.326 25.434 28.128 25.728 27.876 25.98C27.624 26.22 27.324 26.418 26.976 26.574C26.64 26.718 26.28 26.826 25.896 26.898L27.192 28.878C27.504 29.358 27.822 29.832 28.146 30.3C28.47 30.756 28.788 31.23 29.1 31.722C29.184 31.842 29.274 31.968 29.37 32.1C29.478 32.232 29.586 32.352 29.694 32.46C29.814 32.568 29.934 32.658 30.054 32.73C30.186 32.79 30.318 32.82 30.45 32.82V33H29.676C29.196 33 28.8 32.886 28.488 32.658C28.188 32.418 27.936 32.142 27.732 31.83C27.192 31.038 26.652 30.234 26.112 29.418C25.584 28.602 25.056 27.798 24.528 27.006C24.396 26.994 24.252 26.982 24.096 26.97C23.952 26.946 23.814 26.922 23.682 26.898V31.83C23.682 31.926 23.694 32.034 23.718 32.154C23.742 32.262 23.778 32.364 23.826 32.46C23.886 32.556 23.946 32.64 24.006 32.712C24.078 32.784 24.162 32.82 24.258 32.82ZM23.682 21.732V26.304H23.772C23.868 26.316 24.018 26.328 24.222 26.34C24.438 26.34 24.702 26.34 25.014 26.34C25.266 26.34 25.53 26.304 25.806 26.232C26.094 26.148 26.358 26.016 26.598 25.836C26.85 25.644 27.054 25.398 27.21 25.098C27.378 24.798 27.462 24.42 27.462 23.964C27.462 23.508 27.372 23.136 27.192 22.848C27.024 22.56 26.784 22.332 26.472 22.164C26.172 21.996 25.806 21.882 25.374 21.822C24.942 21.762 24.468 21.732 23.952 21.732H23.682ZM31.5307 32.82H31.6207C31.7167 32.82 31.8007 32.79 31.8727 32.73C31.9447 32.658 32.0047 32.574 32.0527 32.478C32.1127 32.382 32.1547 32.28 32.1787 32.172C32.2147 32.064 32.2327 31.962 32.2327 31.866V22.236C32.2327 22.152 32.2147 22.056 32.1787 21.948C32.1547 21.84 32.1127 21.738 32.0527 21.642C32.0047 21.546 31.9447 21.468 31.8727 21.408C31.8007 21.336 31.7167 21.3 31.6207 21.3H31.5307V21.12H38.4607V22.794H38.2807C38.2567 22.518 38.1487 22.278 37.9567 22.074C37.7647 21.858 37.4647 21.75 37.0567 21.75H33.4387V26.304H36.4267C36.7027 26.304 36.9307 26.22 37.1107 26.052C37.3027 25.884 37.3987 25.686 37.3987 25.458H37.5787V27.708H37.3987C37.3987 27.492 37.3087 27.306 37.1287 27.15C36.9487 26.994 36.7147 26.916 36.4267 26.916H33.4387V32.37H37.3807C37.6087 32.37 37.8067 32.316 37.9747 32.208C38.1427 32.1 38.2807 31.974 38.3887 31.83C38.5087 31.674 38.5927 31.512 38.6407 31.344C38.7007 31.164 38.7307 31.014 38.7307 30.894H38.9107V33H31.5307V32.82ZM48.007 26.736H50.581V26.916H50.491C50.395 26.916 50.311 26.952 50.239 27.024C50.167 27.084 50.107 27.162 50.059 27.258C50.011 27.354 49.969 27.456 49.933 27.564C49.909 27.672 49.897 27.768 49.897 27.852V32.676C49.681 32.76 49.435 32.832 49.159 32.892C48.883 32.952 48.595 33 48.295 33.036C47.995 33.084 47.689 33.12 47.377 33.144C47.065 33.168 46.777 33.18 46.513 33.18C45.433 33.18 44.491 33 43.687 32.64C42.883 32.28 42.217 31.812 41.689 31.236C41.161 30.648 40.765 29.988 40.501 29.256C40.249 28.524 40.123 27.786 40.123 27.042C40.123 26.298 40.249 25.56 40.501 24.828C40.765 24.096 41.161 23.442 41.689 22.866C42.229 22.29 42.901 21.828 43.705 21.48C44.521 21.12 45.487 20.94 46.603 20.94C47.023 20.94 47.413 20.976 47.773 21.048C48.133 21.12 48.451 21.186 48.727 21.246C48.883 21.282 49.015 21.318 49.123 21.354C49.243 21.378 49.345 21.39 49.429 21.39H49.591V23.298H49.411C49.339 22.926 49.195 22.626 48.979 22.398C48.775 22.17 48.535 21.996 48.259 21.876C47.983 21.756 47.689 21.678 47.377 21.642C47.077 21.594 46.795 21.57 46.531 21.57C45.631 21.57 44.851 21.732 44.191 22.056C43.531 22.368 42.991 22.776 42.571 23.28C42.151 23.784 41.839 24.354 41.635 24.99C41.431 25.614 41.329 26.238 41.329 26.862C41.329 27.558 41.461 28.248 41.725 28.932C41.989 29.604 42.361 30.21 42.841 30.75C43.321 31.278 43.897 31.71 44.569 32.046C45.253 32.37 46.009 32.532 46.837 32.532C47.065 32.532 47.347 32.508 47.683 32.46C48.019 32.4 48.355 32.274 48.691 32.082V27.852C48.691 27.768 48.679 27.672 48.655 27.564C48.631 27.456 48.589 27.354 48.529 27.258C48.481 27.162 48.421 27.084 48.349 27.024C48.277 26.952 48.193 26.916 48.097 26.916H48.007V26.736ZM52.1691 21.12H54.7431V21.3H54.6531C54.5691 21.3 54.4911 21.336 54.4191 21.408C54.3471 21.468 54.2871 21.546 54.2391 21.642C54.1911 21.726 54.1491 21.828 54.1131 21.948C54.0891 22.056 54.0771 22.152 54.0771 22.236V31.83C54.0771 31.926 54.0891 32.034 54.1131 32.154C54.1371 32.262 54.1731 32.364 54.2211 32.46C54.2811 32.556 54.3411 32.64 54.4011 32.712C54.4731 32.784 54.5571 32.82 54.6531 32.82H54.7431V33H52.1691V32.82H52.2591C52.3551 32.82 52.4391 32.79 52.5111 32.73C52.5831 32.658 52.6431 32.574 52.6911 32.478C52.7511 32.37 52.7931 32.262 52.8171 32.154C52.8411 32.034 52.8531 31.926 52.8531 31.83V22.236C52.8531 22.152 52.8411 22.056 52.8171 21.948C52.7931 21.84 52.7511 21.738 52.6911 21.642C52.6431 21.546 52.5831 21.468 52.5111 21.408C52.4391 21.336 52.3551 21.3 52.2591 21.3H52.1691V21.12ZM63.7641 29.814C63.7641 30.414 63.6441 30.93 63.4041 31.362C63.1641 31.782 62.8521 32.124 62.4681 32.388C62.0961 32.652 61.6701 32.844 61.1901 32.964C60.7221 33.084 60.2541 33.144 59.7861 33.144C59.3061 33.144 58.8921 33.096 58.5441 33C58.1961 32.904 57.8781 32.814 57.5901 32.73C57.3981 32.67 57.2241 32.622 57.0681 32.586C56.9121 32.538 56.7561 32.514 56.6001 32.514V30.462H56.7801C56.7801 30.918 56.8941 31.284 57.1221 31.56C57.3621 31.824 57.6381 32.028 57.9501 32.172C58.2621 32.316 58.5741 32.412 58.8861 32.46C59.1981 32.496 59.4261 32.514 59.5701 32.514C60.0861 32.514 60.5301 32.442 60.9021 32.298C61.2741 32.142 61.5801 31.944 61.8201 31.704C62.0601 31.452 62.2341 31.176 62.3421 30.876C62.4621 30.576 62.5221 30.27 62.5221 29.958C62.5221 29.562 62.4381 29.232 62.2701 28.968C62.1021 28.692 61.8801 28.452 61.6041 28.248C61.3401 28.044 61.0341 27.87 60.6861 27.726C60.3381 27.582 59.9841 27.438 59.6241 27.294C59.2161 27.138 58.8141 26.976 58.4181 26.808C58.0221 26.64 57.6681 26.436 57.3561 26.196C57.0441 25.944 56.7921 25.65 56.6001 25.314C56.4081 24.966 56.3121 24.54 56.3121 24.036C56.3121 23.508 56.4141 23.052 56.6181 22.668C56.8221 22.272 57.0921 21.948 57.4281 21.696C57.7761 21.444 58.1661 21.258 58.5981 21.138C59.0421 21.006 59.4921 20.94 59.9481 20.94C60.2601 20.94 60.5541 20.964 60.8301 21.012C61.1061 21.048 61.3701 21.096 61.6221 21.156C61.8261 21.204 62.0241 21.246 62.2161 21.282C62.4081 21.306 62.5941 21.318 62.7741 21.318V23.172H62.5941C62.5701 22.548 62.3241 22.128 61.8561 21.912C61.3881 21.684 60.7401 21.57 59.9121 21.57C59.4321 21.57 59.0361 21.654 58.7241 21.822C58.4241 21.978 58.1841 22.176 58.0041 22.416C57.8241 22.644 57.6981 22.896 57.6261 23.172C57.5661 23.436 57.5361 23.67 57.5361 23.874C57.5361 24.21 57.6081 24.498 57.7521 24.738C57.9081 24.978 58.1121 25.188 58.3641 25.368C58.6161 25.548 58.9041 25.71 59.2281 25.854C59.5641 25.998 59.9121 26.136 60.2721 26.268C60.6801 26.424 61.0941 26.592 61.5141 26.772C61.9341 26.952 62.3061 27.174 62.6301 27.438C62.9661 27.702 63.2361 28.026 63.4401 28.41C63.6561 28.794 63.7641 29.262 63.7641 29.814ZM69.1843 32.82H69.2743V33H66.7183V32.82H66.8083C66.9043 32.82 66.9883 32.784 67.0603 32.712C67.1323 32.64 67.1923 32.556 67.2403 32.46C67.3003 32.364 67.3423 32.262 67.3663 32.154C67.3903 32.034 67.4023 31.926 67.4023 31.83V21.786H65.3143C65.1223 21.786 64.9543 21.828 64.8103 21.912C64.6663 21.996 64.5463 22.104 64.4503 22.236C64.3543 22.356 64.2823 22.494 64.2343 22.65C64.1863 22.794 64.1623 22.938 64.1623 23.082H63.9823V21.12H72.0643V23.082H71.8843C71.8843 22.938 71.8603 22.794 71.8123 22.65C71.7643 22.494 71.6923 22.356 71.5963 22.236C71.5003 22.104 71.3803 21.996 71.2363 21.912C71.0923 21.828 70.9243 21.786 70.7323 21.786H68.6083V31.83C68.6083 31.926 68.6203 32.034 68.6443 32.154C68.6683 32.262 68.7043 32.364 68.7523 32.46C68.8123 32.556 68.8723 32.64 68.9323 32.712C69.0043 32.784 69.0883 32.82 69.1843 32.82ZM75.4982 32.82H75.5882V33H73.0502V32.82H73.1402C73.2242 32.82 73.3022 32.784 73.3742 32.712C73.4462 32.64 73.5062 32.556 73.5542 32.46C73.6142 32.364 73.6562 32.262 73.6802 32.154C73.7042 32.034 73.7162 31.926 73.7162 31.83V22.236C73.7162 22.152 73.7042 22.056 73.6802 21.948C73.6562 21.84 73.6142 21.738 73.5542 21.642C73.5062 21.546 73.4462 21.468 73.3742 21.408C73.3022 21.336 73.2242 21.3 73.1402 21.3H73.0502V21.12H76.1822C77.3822 21.12 78.3062 21.354 78.9542 21.822C79.6142 22.29 79.9442 22.98 79.9442 23.892C79.9442 24.348 79.8662 24.75 79.7102 25.098C79.5662 25.434 79.3682 25.728 79.1162 25.98C78.8642 26.22 78.5642 26.418 78.2162 26.574C77.8802 26.718 77.5202 26.826 77.1362 26.898L78.4322 28.878C78.7442 29.358 79.0622 29.832 79.3862 30.3C79.7102 30.756 80.0282 31.23 80.3402 31.722C80.4242 31.842 80.5142 31.968 80.6102 32.1C80.7182 32.232 80.8262 32.352 80.9342 32.46C81.0542 32.568 81.1742 32.658 81.2942 32.73C81.4262 32.79 81.5582 32.82 81.6902 32.82V33H80.9162C80.4362 33 80.0402 32.886 79.7282 32.658C79.4282 32.418 79.1762 32.142 78.9722 31.83C78.4322 31.038 77.8922 30.234 77.3522 29.418C76.8242 28.602 76.2962 27.798 75.7682 27.006C75.6362 26.994 75.4922 26.982 75.3362 26.97C75.1922 26.946 75.0542 26.922 74.9222 26.898V31.83C74.9222 31.926 74.9342 32.034 74.9582 32.154C74.9822 32.262 75.0182 32.364 75.0662 32.46C75.1262 32.556 75.1862 32.64 75.2462 32.712C75.3182 32.784 75.4022 32.82 75.4982 32.82ZM74.9222 21.732V26.304H75.0122C75.1082 26.316 75.2582 26.328 75.4622 26.34C75.6782 26.34 75.9422 26.34 76.2542 26.34C76.5062 26.34 76.7702 26.304 77.0462 26.232C77.3342 26.148 77.5982 26.016 77.8382 25.836C78.0902 25.644 78.2942 25.398 78.4502 25.098C78.6182 24.798 78.7022 24.42 78.7022 23.964C78.7022 23.508 78.6122 23.136 78.4322 22.848C78.2642 22.56 78.0242 22.332 77.7122 22.164C77.4122 21.996 77.0462 21.882 76.6142 21.822C76.1822 21.762 75.7082 21.732 75.1922 21.732H74.9222ZM89.6469 32.82H89.7369C90.0249 32.82 90.1689 32.688 90.1689 32.424C90.1689 32.328 90.1509 32.226 90.1149 32.118L88.4949 27.744H85.3449L83.7789 32.046C83.7429 32.142 83.7249 32.232 83.7249 32.316C83.7249 32.472 83.7669 32.598 83.8509 32.694C83.9349 32.778 84.0249 32.82 84.1209 32.82H84.2109V33H82.2129V32.82H82.3029C82.4589 32.82 82.6089 32.73 82.7529 32.55C82.9089 32.358 83.0349 32.136 83.1309 31.884L87.2529 20.904L91.2849 31.776C91.3689 32.016 91.4829 32.25 91.6269 32.478C91.7829 32.706 91.9809 32.82 92.2209 32.82H92.3109V33H89.6469V32.82ZM85.5249 27.132H88.2969L86.9109 23.37L85.5249 27.132ZM96.2722 32.82H96.3622V33H93.8062V32.82H93.8962C93.9922 32.82 94.0762 32.784 94.1482 32.712C94.2202 32.64 94.2802 32.556 94.3282 32.46C94.3882 32.364 94.4302 32.262 94.4542 32.154C94.4782 32.034 94.4902 31.926 94.4902 31.83V21.786H92.4022C92.2102 21.786 92.0422 21.828 91.8982 21.912C91.7542 21.996 91.6342 22.104 91.5382 22.236C91.4422 22.356 91.3702 22.494 91.3222 22.65C91.2742 22.794 91.2502 22.938 91.2502 23.082H91.0702V21.12H99.1522V23.082H98.9722C98.9722 22.938 98.9482 22.794 98.9002 22.65C98.8522 22.494 98.7802 22.356 98.6842 22.236C98.5882 22.104 98.4682 21.996 98.3242 21.912C98.1802 21.828 98.0122 21.786 97.8202 21.786H95.6962V31.83C95.6962 31.926 95.7082 32.034 95.7322 32.154C95.7562 32.262 95.7922 32.364 95.8402 32.46C95.9002 32.556 95.9602 32.64 96.0202 32.712C96.0922 32.784 96.1762 32.82 96.2722 32.82ZM100.21 21.12H102.784V21.3H102.694C102.61 21.3 102.532 21.336 102.46 21.408C102.388 21.468 102.328 21.546 102.28 21.642C102.232 21.726 102.19 21.828 102.154 21.948C102.13 22.056 102.118 22.152 102.118 22.236V31.83C102.118 31.926 102.13 32.034 102.154 32.154C102.178 32.262 102.214 32.364 102.262 32.46C102.322 32.556 102.382 32.64 102.442 32.712C102.514 32.784 102.598 32.82 102.694 32.82H102.784V33H100.21V32.82H100.3C100.396 32.82 100.48 32.79 100.552 32.73C100.624 32.658 100.684 32.574 100.732 32.478C100.792 32.37 100.834 32.262 100.858 32.154C100.882 32.034 100.894 31.926 100.894 31.83V22.236C100.894 22.152 100.882 22.056 100.858 21.948C100.834 21.84 100.792 21.738 100.732 21.642C100.684 21.546 100.624 21.468 100.552 21.408C100.48 21.336 100.396 21.3 100.3 21.3H100.21V21.12ZM110.581 20.94C111.517 20.94 112.357 21.108 113.101 21.444C113.845 21.768 114.475 22.212 114.991 22.776C115.519 23.328 115.921 23.976 116.197 24.72C116.485 25.452 116.629 26.22 116.629 27.024C116.629 27.924 116.461 28.752 116.125 29.508C115.801 30.264 115.351 30.912 114.775 31.452C114.199 31.992 113.527 32.418 112.759 32.73C112.003 33.03 111.193 33.18 110.329 33.18C109.405 33.18 108.571 33.012 107.827 32.676C107.095 32.34 106.471 31.896 105.955 31.344C105.451 30.792 105.061 30.156 104.785 29.436C104.509 28.716 104.371 27.966 104.371 27.186C104.371 26.418 104.509 25.662 104.785 24.918C105.061 24.162 105.463 23.49 105.991 22.902C106.531 22.314 107.185 21.84 107.953 21.48C108.721 21.12 109.597 20.94 110.581 20.94ZM110.563 32.55C111.367 32.514 112.069 32.334 112.669 32.01C113.281 31.674 113.791 31.254 114.199 30.75C114.607 30.234 114.907 29.67 115.099 29.058C115.303 28.446 115.405 27.84 115.405 27.24C115.405 26.58 115.285 25.914 115.045 25.242C114.805 24.57 114.463 23.964 114.019 23.424C113.575 22.872 113.041 22.428 112.417 22.092C111.805 21.744 111.115 21.57 110.347 21.57C109.603 21.57 108.937 21.738 108.349 22.074C107.761 22.398 107.257 22.818 106.837 23.334C106.429 23.85 106.117 24.426 105.901 25.062C105.685 25.698 105.577 26.322 105.577 26.934C105.577 27.594 105.703 28.26 105.955 28.932C106.207 29.592 106.555 30.192 106.999 30.732C107.443 31.272 107.965 31.71 108.565 32.046C109.177 32.382 109.843 32.55 110.563 32.55ZM120.098 32.82H120.188V33H118.19V32.82H118.28C118.364 32.82 118.442 32.784 118.514 32.712C118.598 32.64 118.664 32.556 118.712 32.46C118.76 32.364 118.796 32.262 118.82 32.154C118.856 32.034 118.874 31.926 118.874 31.83V22.236C118.874 22.152 118.862 22.056 118.838 21.948C118.826 21.84 118.796 21.738 118.748 21.642C118.7 21.546 118.634 21.468 118.55 21.408C118.466 21.336 118.364 21.3 118.244 21.3H118.154V21.12H119.972L126.506 31.416V22.236C126.506 22.152 126.488 22.056 126.452 21.948C126.428 21.84 126.386 21.738 126.326 21.642C126.278 21.546 126.218 21.468 126.146 21.408C126.074 21.336 125.99 21.3 125.894 21.3H125.804V21.12H127.82V21.3H127.73C127.634 21.3 127.55 21.336 127.478 21.408C127.406 21.468 127.34 21.546 127.28 21.642C127.232 21.738 127.196 21.84 127.172 21.948C127.148 22.056 127.136 22.152 127.136 22.236V33H126.02L119.504 22.668V31.83C119.504 31.926 119.516 32.034 119.54 32.154C119.564 32.262 119.6 32.364 119.648 32.46C119.708 32.556 119.774 32.64 119.846 32.712C119.918 32.784 120.002 32.82 120.098 32.82Z" fill="white"/>
</svg>
