<svg width="38" height="37" viewBox="0 0 38 37" fill="none" xmlns="http://www.w3.org/2000/svg">
<rect width="38" height="37" rx="12" fill="#0A0B0A"/>
<rect x="11.5" y="11.5" width="14.7241" height="14.7241" stroke="black"/>
<path d="M11 12.6H12.7778M12.7778 12.6H27M12.7778 12.6V25.2C12.7778 25.6774 12.9651 26.1352 13.2985 26.4728C13.6319 26.8104 14.0841 27 14.5556 27H23.4444C23.9159 27 24.3681 26.8104 24.7015 26.4728C25.0349 26.1352 25.2222 25.6774 25.2222 25.2V12.6M15.4444 12.6V10.8C15.4444 10.3226 15.6317 9.86477 15.9651 9.52721C16.2985 9.18964 16.7507 9 17.2222 9H20.7778C21.2493 9 21.7015 9.18964 22.0349 9.52721C22.3683 9.86477 22.5556 10.3226 22.5556 10.8V12.6M17.2222 17.1V22.5M20.7778 17.1V22.5" stroke="#F3F3F3" stroke-width="2" stroke-linecap="round" stroke-linejoin="round"/>
</svg>
